<?xml version="1.0" encoding="utf-8"?>
<!-- Generator: Adobe Illustrator 24.0.0, SVG Export Plug-In . SVG Version: 6.00 Build 0)  -->
<svg version="1.0" id="Layer_1" xmlns="http://www.w3.org/2000/svg" xmlns:xlink="http://www.w3.org/1999/xlink" x="0px" y="0px"
	 viewBox="0 0 99.21 76.52" style="enable-background:new 0 0 99.21 76.52;" xml:space="preserve">
<g>
	<path d="M95.94,5.67H3.27C1.46,5.67,0,4.4,0,2.83S1.46,0,3.27,0h92.67c1.81,0,3.27,1.27,3.27,2.83S97.75,5.67,95.94,5.67z"/>
	<path d="M95.94,41.1H3.27C1.46,41.1,0,39.83,0,38.26c0-1.57,1.46-2.83,3.27-2.83h92.67c1.81,0,3.27,1.27,3.27,2.83
		C99.21,39.83,97.75,41.1,95.94,41.1z"/>
	<path d="M95.94,76.52H3.27C1.46,76.52,0,75.25,0,73.69s1.46-2.83,3.27-2.83h92.67c1.81,0,3.27,1.27,3.27,2.83
		S97.75,76.52,95.94,76.52z"/>
</g>
</svg>
