<?xml version="1.0" encoding="utf-8"?>
<!-- Generator: Adobe Illustrator 24.0.0, SVG Export Plug-In . SVG Version: 6.00 Build 0)  -->
<svg version="1.0" id="Layer_1" xmlns="http://www.w3.org/2000/svg" xmlns:xlink="http://www.w3.org/1999/xlink" x="0px" y="0px"
	 viewBox="0 0 76.52 76.52" style="enable-background:new 0 0 76.52 76.52;" xml:space="preserve">
<path d="M42.27,38.26L75.34,5.19c1.37-1.37,1.58-3.37,0.47-4.48s-3.11-0.9-4.48,0.47L38.26,34.25L5.19,1.18
	C3.82-0.19,1.82-0.4,0.71,0.71s-0.9,3.11,0.47,4.48l33.07,33.07L1.18,71.33c-1.37,1.37-1.58,3.37-0.47,4.48s3.11,0.9,4.48-0.47
	l33.07-33.07l33.07,33.07c1.37,1.37,3.37,1.58,4.48,0.47s0.9-3.11-0.47-4.48L42.27,38.26z"/>
</svg>
